<?xml version="1.0" standalone="no"?><!DOCTYPE svg PUBLIC "-//W3C//DTD SVG 1.1//EN" "http://www.w3.org/Graphics/SVG/1.1/DTD/svg11.dtd"><svg t="1666702346943" class="icon" viewBox="0 0 1024 1024" version="1.1" xmlns="http://www.w3.org/2000/svg" p-id="7421" xmlns:xlink="http://www.w3.org/1999/xlink" width="16" height="16"><path d="M511.985707 0c282.744107 0 511.985707 229.2416 511.985707 511.985707a42.665476 42.665476 0 0 1-85.330951 0c0-235.641422-191.013334-426.654756-426.654756-426.654756S85.330951 276.344285 85.330951 511.985707c0 91.9441 29.353847 178.128361 79.912436 248.654392a277.965573 277.965573 0 0 1 161.403494-147.878539 42.665476 42.665476 0 1 1 28.159214 80.552418 192.421295 192.421295 0 0 0-124.156534 139.558771 425.161464 425.161464 0 0 0 166.395355 90.109484 42.665476 42.665476 0 1 1-22.954026 82.216372A512.156369 512.156369 0 0 1 0 511.985707C0 229.2416 229.2416 0 511.985707 0z" p-id="7422" fill="#e50914"></path><path d="M511.985707 127.996427a213.327378 213.327378 0 1 0 0 426.654756 213.327378 213.327378 0 0 0 0-426.654756z m0 85.330951a127.996427 127.996427 0 1 1 0 255.992853 127.996427 127.996427 0 0 1 0-255.992853zM917.307725 597.316658h-383.98928a63.998213 63.998213 0 0 0-63.998214 63.998214v213.028719l0.298659 6.186494a63.998213 63.998213 0 0 0 63.699555 57.81172l139.217447 0.042665 161.659487 81.064404 4.479875 1.962612A42.665476 42.665476 0 0 0 895.974987 981.305939v-42.921469h21.332738a63.998213 63.998213 0 0 0 63.998214-63.998213V661.314872a63.998213 63.998213 0 0 0-63.998214-63.998214z m-21.332738 85.330951v170.40591h-42.665475l-4.991861 0.255993a42.665476 42.665476 0 0 0-37.673615 42.366817v16.511539l-108.882294-54.611809-4.52254-2.005277a42.665476 42.665476 0 0 0-14.591593-2.559929l-127.996426 0.042666V682.647609h341.323804z" p-id="7423" fill="#e50914"></path></svg>